<svg xmlns="http://www.w3.org/2000/svg" viewBox="0 0 280 80" role="img" aria-label="Emirates NBD">
  <rect width="280" height="80" rx="6" fill="#003087"/>
  <path fill="#C4A962" d="M28 52c8-18 22-28 38-28 4 0 8 1 11 3-14 4-24 16-28 32-6-1-13-3-21-7z"/>
  <path fill="#fff" d="M34 48c10-16 24-24 40-24 3 0 6.5.6 9.5 1.8-12 5-21 16-25 30-8-1-16-3-24.5-7.8z" opacity=".95"/>
  <path fill="#C4A962" d="M48 40c6-10 14-15 24-15 2 0 4 .3 6 1-8 3-14 10-17 20-4-.5-8.5-2-13-6z"/>
  <rect x="92" y="22" width="1.5" height="36" fill="#fff" opacity=".85"/>
  <text x="108" y="48" fill="#fff" font-family="Arial, Helvetica, sans-serif" font-size="22" font-weight="600">Emirates NBD</text>
</svg>
